# xmcd
#
# Track frame offsets:
#	150
#	15448
#	24156
#	32928
#	45055
#	59771
#	70442
#	83075
#	93351
#	102716
#
# Disc length: 1499 seconds
#
# Revision: 0
# Processed by: cddbd v1.5.1PL2 Copyright (c) Steve Scherf et al.
# Submitted via: dBpowerAMP V4.0
#
DISCID=7805d90a
DTITLE=Jim Stafford - Don't Tell Mama I'm A Guitar Picker
DYEAR=2002
DGENRE=Country
TTITLE0=Don't Tell Mama
TTITLE1=Bluegrass Growing In My Yard
TTITLE2=Hwy 60 Blues
TTITLE3=A Real Good Time
TTITLE4=Guitar Heroes
TTITLE5=Turn Loose Of My Leg
TTITLE6=When You Walked Away From Me
TTITLE7=Flat Nose Tree Climbing Dog
TTITLE8=A Little Bit Late
TTITLE9=Guitar Acrobat
EXTD=
EXTT0=
EXTT1=
EXTT2=
EXTT3=
EXTT4=
EXTT5=
EXTT6=
EXTT7=
EXTT8=
EXTT9=
PLAYORDER=
